Coordinates
version=1
nRows=34
nColumns=38
inDegrees=no

Units are S.I. units (second, meters, Newtons, ...)
If the header above contains a line with 'inDegrees', this indicates whether rotational values are in degrees (yes) or radians (no).

endheader
time	pelvis_tilt	pelvis_list	pelvis_rotation	pelvis_tx	pelvis_ty	pelvis_tz	hip_flexion_r	hip_adduction_r	hip_rotation_r	knee_angle_r	ankle_angle_r	subtalar_angle_r	mtp_angle_r	hip_flexion_l	hip_adduction_l	hip_rotation_l	knee_angle_l	ankle_angle_l	subtalar_angle_l	mtp_angle_l	lumbar_extension	lumbar_bending	lumbar_rotation	arm_flex_r	arm_add_r	arm_rot_r	elbow_flex_r	pro_sup_r	wrist_flex_r	wrist_dev_r	arm_flex_l	arm_add_l	arm_rot_l	elbow_flex_l	pro_sup_l	wrist_flex_l	wrist_dev_l
0.53	-2.84511	1.41593	-1.79221	0.659775	0.737744	1.05798	-0.213914	0.0096038	-0.220826	0.386164	-0.00988795	0	0	0.215552	0.00750353	-0.319448	0.474322	-0.137712	0	0	-0.363915	0.0212033	-0.0430798	-0.167048	-0.247742	-0.123549	0.512395	0.302764	0	0	-0.320974	-0.415022	0.578121	0.708505	1.05874	0	0
0.54	-2.84306	1.41689	-1.79652	0.659278	0.747673	1.05628	-0.225015	0.00858069	-0.223746	0.383325	-0.00683185	0	0	0.214869	0.0167207	-0.304754	0.422772	-0.140719	0	0	-0.362656	0.0176423	-0.0417573	-0.166819	-0.249755	-0.117566	0.515057	0.294932	0	0	-0.325681	-0.406321	0.577881	0.697032	1.05494	0	0
0.55	-2.84073	1.41716	-1.80194	0.658793	0.757651	1.05457	-0.236466	0.00685913	-0.226971	0.380811	-0.00290513	0	0	0.212723	0.026349	-0.290183	0.373925	-0.14482	0	0	-0.361857	0.0134536	-0.0406728	-0.1659	-0.251588	-0.111634	0.517022	0.288106	0	0	-0.330593	-0.397891	0.577137	0.685909	1.05417	0	0
0.56	-2.83762	1.41746	-1.80918	0.658343	0.767769	1.05286	-0.246687	0.00399318	-0.230835	0.379816	0.000717062	0	0	0.210175	0.035707	-0.276256	0.329251	-0.149222	0	0	-0.363267	0.0087031	-0.0348452	-0.161088	-0.222125	-0.227205	0.511572	0.408499	0	0	-0.336983	-0.383494	0.550234	0.673012	1.08243	0	0
0.57	-2.84138	1.41407	-1.81056	0.657828	0.777771	1.0513	-0.260385	0.00093175	-0.232975	0.380884	0.005667	0	0	0.202943	0.0445373	-0.262855	0.288386	-0.154394	0	0	-0.365855	0.00453915	-0.0329992	-0.16827	-0.253132	-0.114241	0.527075	0.283619	0	0	-0.333395	-0.385245	0.588029	0.665526	1.03816	0	0
0.58	-2.84015	1.41181	-1.81804	0.657358	0.787896	1.04968	-0.271582	-0.00299998	-0.232134	0.384972	0.0108852	0	0	0.197941	0.0526337	-0.25267	0.255451	-0.157136	0	0	-0.368734	-0.000765392	-0.0276629	-0.16977	-0.252972	-0.118956	0.532402	0.287271	0	0	-0.334142	-0.378488	0.590082	0.655174	1.03243	0	0
0.59	-2.83747	1.40937	-1.82791	0.656931	0.798147	1.04814	-0.281895	-0.00785408	-0.230693	0.39053	0.0139279	0	0	0.195197	0.0590485	-0.250495	0.234757	-0.156956	0	0	-0.371262	-0.0070064	-0.022201	-0.170964	-0.252802	-0.120839	0.53655	0.290814	0	0	-0.335422	-0.372358	0.588602	0.646181	1.02565	0	0
0.6	-2.83383	1.40698	-1.8385	0.656462	0.808492	1.04665	-0.291617	-0.0128509	-0.229304	0.396281	0.0157753	0	0	0.194023	0.0645928	-0.251046	0.223541	-0.156285	0	0	-0.373269	-0.0136558	-0.017315	-0.171993	-0.252098	-0.12272	0.539833	0.294471	0	0	-0.336689	-0.367636	0.587208	0.638531	1.02205	0	0
0.61	-2.82604	1.40405	-1.8531	0.656046	0.819126	1.04525	-0.302508	-0.0180529	-0.227663	0.401456	0.0170927	0	0	0.192257	0.070258	-0.25368	0.218009	-0.155804	0	0	-0.374649	-0.0214493	-0.0133036	-0.173325	-0.250396	-0.125387	0.542306	0.298812	0	0	-0.337911	-0.363223	0.587236	0.6296	1.0232	0	0
0.62	-2.81524	1.40255	-1.87075	0.655631	0.829912	1.04389	-0.311145	-0.023201	-0.223307	0.408851	0.0194741	0	0	0.192273	0.0752646	-0.257451	0.218378	-0.157474	0	0	-0.37608	-0.0295507	-0.00635053	-0.173213	-0.226473	-0.208287	0.540929	0.385577	0	0	-0.342133	-0.349622	0.550426	0.615052	1.07302	0	0
0.63	-2.81421	1.39978	-1.87894	0.655094	0.840712	1.04269	-0.320261	-0.0278586	-0.216174	0.417911	0.0195097	0	0	0.192752	0.076976	-0.269277	0.230543	-0.159086	0	0	-0.376267	-0.0355099	-0.00191487	-0.183883	-0.253579	-0.11102	0.557525	0.27502	0	0	-0.333486	-0.354799	0.596951	0.605529	1.02994	0	0
0.64	-2.81157	1.39889	-1.88715	0.654486	0.851886	1.04145	-0.328053	-0.031568	-0.210467	0.425857	0.0179032	0	0	0.193592	0.0785493	-0.274529	0.244288	-0.160857	0	0	-0.374381	-0.0416714	0.00119718	-0.187754	-0.251314	-0.112937	0.560946	0.278019	0	0	-0.333643	-0.352457	0.598351	0.597281	1.02729	0	0
0.65	-2.81258	1.39862	-1.89178	0.653826	0.86325	1.04027	-0.334911	-0.0347063	-0.202938	0.43484	0.0144605	0	0	0.194831	0.0783778	-0.28045	0.263712	-0.162395	0	0	-0.37169	-0.0469506	0.0045902	-0.192572	-0.249247	-0.114834	0.564605	0.282994	0	0	-0.333783	-0.350515	0.597963	0.589924	1.02223	0	0
0.66	-2.81642	1.39784	-1.89324	0.653064	0.875049	1.0392	-0.342338	-0.037984	-0.196284	0.444458	0.0098193	0	0	0.193583	0.0777767	-0.284675	0.284966	-0.163431	0	0	-0.368722	-0.0518937	0.00761647	-0.198412	-0.24708	-0.117409	0.567944	0.287991	0	0	-0.334849	-0.349725	0.595801	0.584577	1.01761	0	0
0.67	-2.82504	1.39587	-1.89062	0.652316	0.887288	1.03829	-0.351025	-0.0414693	-0.188142	0.454772	0.00322869	0	0	0.188874	0.0762876	-0.289584	0.307057	-0.164907	0	0	-0.365676	-0.0566362	0.0100765	-0.20431	-0.24468	-0.120997	0.570683	0.293335	0	0	-0.337313	-0.348916	0.593989	0.579469	1.01646	0	0
0.68	-2.83038	1.39353	-1.89162	0.651478	0.899758	1.0376	-0.358854	-0.0465636	-0.178886	0.466643	-0.00102321	0	0	0.181141	0.0766808	-0.290084	0.322771	-0.168503	0	0	-0.361285	-0.0622695	0.00983259	-0.20734	-0.248908	-0.0993296	0.570175	0.273383	0	0	-0.343273	-0.346397	0.579374	0.575406	1.01842	0	0
0.69	-2.82352	1.39035	-1.90604	0.650703	0.912298	1.03737	-0.36507	-0.0548769	-0.165997	0.481682	-0.0129338	0	0	0.172902	0.0791028	-0.295096	0.331523	-0.180074	0	0	-0.359764	-0.0707923	0.0145361	-0.205679	-0.216736	-0.202671	0.559425	0.391561	0	0	-0.348003	-0.338319	0.540241	0.56707	1.05343	0	0
0.7	-2.80612	1.38581	-1.9308	0.649905	0.924772	1.03763	-0.370141	-0.0654288	-0.151524	0.500362	-0.0299401	0	0	0.165674	0.0825815	-0.305598	0.337011	-0.198904	0	0	-0.3517	-0.0821773	0.00608936	-0.201782	-0.241685	-0.0946338	0.548818	0.315173	0	0	-0.350315	-0.344786	0.572145	0.563028	1.00988	0	0
0.71	-2.78593	1.38102	-1.9568	0.64906	0.937199	1.03829	-0.373641	-0.0755183	-0.135855	0.52138	-0.0438275	0	0	0.160211	0.0847995	-0.317707	0.348793	-0.212496	0	0	-0.348371	-0.0938226	0.00400629	-0.200493	-0.239264	-0.0849822	0.539063	0.330653	0	0	-0.350661	-0.345806	0.568721	0.55687	1.00493	0	0
0.72	-2.76694	1.3766	-1.9798	0.648085	0.949609	1.03924	-0.374369	-0.0843895	-0.117951	0.546329	-0.0645625	0	0	0.154627	0.0858406	-0.328146	0.366536	-0.223604	0	0	-0.343969	-0.104506	-0.000877774	-0.197172	-0.233991	-0.0852617	0.528415	0.336547	0	0	-0.350051	-0.346887	0.570293	0.548498	1.005	0	0
0.73	-2.74816	1.37321	-2.00024	0.646843	0.962032	1.04037	-0.371303	-0.0920069	-0.098877	0.575528	-0.0915507	0	0	0.148283	0.0877417	-0.332222	0.383921	-0.22886	0	0	-0.338508	-0.113738	-0.00767607	-0.195299	-0.228019	-0.0902702	0.520595	0.337509	0	0	-0.348568	-0.349189	0.574027	0.541252	1.00001	0	0
0.74	-2.731	1.37112	-2.01698	0.645278	0.974365	1.04153	-0.364105	-0.0982234	-0.0790181	0.608855	-0.119708	0	0	0.141979	0.0904709	-0.328935	0.398923	-0.231591	0	0	-0.332715	-0.120993	-0.0154726	-0.195835	-0.222628	-0.0970407	0.517022	0.337803	0	0	-0.34714	-0.352678	0.573115	0.538025	0.988788	0	0
0.75	-2.7155	1.36959	-2.03044	0.643661	0.98658	1.04256	-0.354338	-0.10314	-0.0603532	0.644256	-0.145939	0	0	0.134725	0.0932695	-0.321113	0.411753	-0.232761	0	0	-0.32802	-0.126216	-0.0229112	-0.199333	-0.218734	-0.10196	0.516813	0.344232	0	0	-0.345012	-0.357446	0.5682	0.538206	0.978327	0	0
0.76	-2.7028	1.36974	-2.04037	0.641655	0.998868	1.04381	-0.340907	-0.107111	-0.0428895	0.680885	-0.188074	0	0	0.128397	0.0960923	-0.312764	0.420605	-0.232316	0	0	-0.319341	-0.130485	-0.0338511	-0.202811	-0.230868	-0.0469322	0.517695	0.298265	0	0	-0.341608	-0.36427	0.581929	0.536592	0.970124	0	0
0.77	-2.68359	1.37111	-2.0575	0.639921	1.0109	1.04469	-0.324332	-0.110828	-0.0265804	0.718846	-0.225626	0	0	0.122621	0.0988548	-0.308788	0.426568	-0.230972	0	0	-0.311188	-0.134889	-0.0405283	-0.206971	-0.22907	-0.0479498	0.517051	0.306918	0	0	-0.33642	-0.371524	0.590314	0.536287	0.977861	0	0
0.78	-2.66673	1.37189	-2.07325	0.638257	1.02255	1.0456	-0.304665	-0.11475	-0.0104524	0.76086	-0.257252	0	0	0.114962	0.100903	-0.309754	0.430055	-0.228459	0	0	-0.304986	-0.139117	-0.0464071	-0.209684	-0.22738	-0.0504184	0.516301	0.314014	0	0	-0.330843	-0.381348	0.59533	0.542003	0.977579	0	0
0.79	-2.6495	1.372	-2.09029	0.636602	1.03376	1.04648	-0.282002	-0.11888	0.00478677	0.807107	-0.282894	0	0	0.105709	0.10448	-0.312529	0.430918	-0.225796	0	0	-0.300637	-0.143516	-0.0511545	-0.211379	-0.225871	-0.0547098	0.516073	0.320778	0	0	-0.323724	-0.392382	0.598978	0.550108	0.980787	0	0
0.8	-2.63096	1.37114	-2.11005	0.634966	1.04444	1.0473	-0.256536	-0.123724	0.0202754	0.856993	-0.299697	0	0	0.0952744	0.110556	-0.314763	0.4297	-0.22351	0	0	-0.298037	-0.148567	-0.0548612	-0.212367	-0.226868	-0.0524447	0.517944	0.319617	0	0	-0.315871	-0.403228	0.599349	0.559542	0.987718	0	0
0.81	-2.61475	1.36845	-2.12844	0.633626	1.05462	1.04801	-0.230431	-0.128928	0.0354557	0.908487	-0.331793	0	0	0.0818942	0.118099	-0.319673	0.426037	-0.220026	0	0	-0.299371	-0.1537	-0.0556161	-0.2138	-0.222801	-0.0723613	0.521676	0.338983	0	0	-0.305721	-0.415175	0.599182	0.571248	0.997941	0	0
0.82	-2.60972	1.36337	-2.13737	0.63205	1.06478	1.04916	-0.204884	-0.133776	0.049778	0.960688	-0.352509	0	0	0.065515	0.12561	-0.327191	0.421358	-0.214959	0	0	-0.30162	-0.159596	-0.0617218	-0.212407	-0.245198	0.00653909	0.531482	0.260654	0	0	-0.301907	-0.426573	0.584806	0.587564	1.00311	0	0
0.83	-2.60255	1.35818	-2.1479	0.630743	1.07456	1.05005	-0.179963	-0.137459	0.0628391	1.01022	-0.3541	0	0	0.0488034	0.133874	-0.333183	0.416272	-0.209955	0	0	-0.306652	-0.165179	-0.063681	-0.212817	-0.246795	0.00580501	0.539618	0.261959	0	0	-0.292793	-0.440151	0.576539	0.604418	1.00753	0	0
0.84	-2.59961	1.3526	-2.15345	0.629452	1.08415	1.05099	-0.155747	-0.1398	0.0750925	1.05764	-0.34062	0	0	0.0306848	0.141956	-0.336905	0.409344	-0.20514	0	0	-0.313222	-0.169952	-0.0661185	-0.213135	-0.247982	0.00361156	0.54871	0.264134	0	0	-0.283163	-0.454025	0.566278	0.622012	1.01553	0	0
0.85	-2.59848	1.34785	-2.15614	0.6282	1.09356	1.05198	-0.128297	-0.141601	0.0872672	1.10503	-0.329964	0	0	0.0126914	0.149047	-0.338686	0.400702	-0.201275	0	0	-0.320342	-0.173421	-0.0661685	-0.214563	-0.238516	-0.0356672	0.555514	0.304282	0	0	-0.263656	-0.475706	0.590392	0.639797	0.993954	0	0
0.86	-2.60411	1.34266	-2.1501	0.6269	1.10282	1.05313	-0.104368	-0.141026	0.0953755	1.14595	-0.307381	0	0	-0.00703034	0.154889	-0.337467	0.390407	-0.198424	0	0	-0.327849	-0.175372	-0.0715795	-0.213119	-0.241923	-0.0255181	0.563041	0.29494	0	0	-0.252084	-0.491149	0.583221	0.656943	0.99947	0	0
